<svg width="74" height="24" viewBox="0 0 74 24" fill="none" xmlns="http://www.w3.org/2000/svg">
<path d="M63.8912 5.57317C69.4009 5.58914 73.0024 9.48911 73.0024 14.4468C73.0024 19.3805 69.3861 23.2863 63.8572 23.2863C58.3632 23.2863 54.7816 19.3805 54.7816 14.4468C54.7816 14.4407 54.7816 14.4346 54.7816 14.4285L57.5982 14.4279C57.5982 14.4342 57.5982 14.4405 57.5982 14.4468C57.5982 17.9758 59.7888 20.888 63.8572 20.888C67.9604 20.888 70.1511 17.9758 70.1511 14.4468C70.1511 10.8935 67.9725 7.98752 63.8912 7.97149V5.57317Z" fill="#001EE1"/>
<path d="M54.7815 5.57386L54.7816 11.6298H57.5949L57.5949 7.96539H61.45V5.57323L54.7816 5.57323L54.7815 5.57386Z" fill="#001EE1"/>
<path d="M46.0725 20.9224V7.97586H51.4622V5.57755H46.0725V0.673828L43.2559 1.53037V5.57755H39.4309V7.97586H43.2559V20.9566C43.2559 22.5326 43.9861 23.3892 45.6204 23.2864L51.4622 22.9365V20.5382L46.0725 20.9224Z" fill="#001EE1"/>
<path d="M20.9485 14.4127C20.9485 19.3463 24.1824 23.2864 29.7807 23.2864C33.1189 23.2864 37.3959 21.4363 37.848 16.5026H34.9618C34.475 19.7575 32.2844 20.8881 29.7807 20.8881C25.6776 20.8881 23.7999 17.9416 23.7999 14.4127C23.7999 10.918 25.6776 7.97154 29.7807 7.97154C32.2844 7.97154 34.475 9.10217 34.9618 12.357H37.848C37.3959 7.42336 33.1189 5.57324 29.7807 5.57324C24.1824 5.57324 20.9485 9.51331 20.9485 14.4127Z" fill="#001EE1"/>
<path d="M9.11135 23.2864C3.6016 23.2705 0 19.3705 0 14.4128C0 9.47911 3.61635 5.57331 9.14518 5.57331C14.6392 5.57331 18.2208 9.47911 18.2208 14.4128C18.2208 14.4189 18.2208 14.425 18.2208 14.4311L15.4042 14.4317C15.4042 14.4254 15.4042 14.4191 15.4042 14.4128C15.4042 10.8838 13.2136 7.97161 9.14518 7.97161C5.04202 7.97161 2.85135 10.8838 2.85135 14.4128C2.85135 17.9662 5.02998 20.8721 9.11135 20.8881V23.2864Z" fill="#001EE1"/>
<path d="M18.2209 23.3263L18.2209 17.2703H15.4039L15.4039 20.9347H11.5524V23.3269H18.2208L18.2209 23.3263Z" fill="#001EE1"/>
</svg>
