<?xml version="1.0" encoding="utf-8"?>
<!-- Generator: Adobe Illustrator 26.0.3, SVG Export Plug-In . SVG Version: 6.00 Build 0)  -->
<svg version="1.1" id="Ebene_1" xmlns="http://www.w3.org/2000/svg" xmlns:xlink="http://www.w3.org/1999/xlink" x="0px" y="0px"
	 viewBox="0 0 2666.6 507.7" style="enable-background:new 0 0 2666.6 507.7;" xml:space="preserve">
<path d="M172.9,179.4c20.7,0,40.1,3.1,58.2,9.4l1.6,0.6c17.2,6.1,29.3,11.8,36.4,17.1c7.2,5.5,12.8,10.7,16.6,15.5
	c0,44.3-13,66.5-39.1,66.5c-18.8,0-33-12-42.7-36.1c-4.3-11.1-9.8-19.4-16.3-24.9s-15.6-8.3-27.1-8.3c-38.6,0-57.9,36.1-57.9,108.4
	c0,81.4,27.2,122.2,81.7,122.2c15.9,0,31.1-2.3,45.6-6.9l2.2-0.7c13.1-4.2,22.4-8,27.9-11.4l0.3-0.2c5.8-3.6,13.5-9,23.1-16.3
	c4.3,1.9,6.5,6.5,6.5,13.7c0,5.8-1,10.6-2.9,14.5c-4.8,12-19.2,25.9-43,41.6c-23.9,15.7-50.7,23.5-80.6,23.5
	c-46.3,0-85.1-16.3-116.4-48.8C15.7,426.2,0,386.3,0,339.1c0-44.3,16.8-82,50.3-113.1S124.6,179.4,172.9,179.4z M504.1,179.4
	c47.3,0,87.4,15.9,120.4,47.7S674,297.7,674,343.5s-16.4,84.6-49.2,116.4s-73,47.7-120.8,47.7c-47.3,0-87.4-15.9-120.4-47.7
	s-49.5-70.6-49.5-116.4s16.4-84.6,49.2-116.4C416.6,195.3,456.8,179.4,504.1,179.4z M1955.6,179.4c43.4,0,78.2,15.1,104.5,45.2
	c26.3,30.1,39.4,60.8,39.4,92.2c0,11.1-2.3,18.3-6.9,21.7c-4.6,3.4-13.6,5.1-27.1,5.1h-163.4c-2.9,0-4.3,1.7-4.3,5.1
	c0,26,7.3,49.4,22.1,70.1c14.7,20.7,35.8,31.1,63.3,31.1c15.9,0,31.1-2.3,45.6-6.9l1.5-0.5c13.5-4.3,23-8.2,28.6-11.6l0.3-0.2
	c5.8-3.6,13.5-9,23.1-16.3c4.3,1.9,6.5,6.5,6.5,13.7c0,5.8-1,10.6-2.9,14.5c-4.8,11.6-19.3,25.3-43.4,41.2
	c-24.1,15.9-51.1,23.9-81,23.9c-44.4,0-82.6-16.1-114.6-48.4c-32.1-32.3-48.1-71.1-48.1-116.4c0-46.3,14.5-85,43.4-116.4
	C1871,195,1908.9,179.4,1955.6,179.4L1955.6,179.4z M2617,408.4c13.6,0,25.3,4.8,35,14.5s14.6,21.4,14.6,35c0,13.7-4.9,25.3-14.6,35
	c-9.7,9.7-21.4,14.5-35,14.5s-25.3-4.8-35-14.5s-14.5-21.4-14.5-35c0-13.7,4.8-25.3,14.5-35C2591.7,413.3,2603.3,408.4,2617,408.4z
	 M1711.2,0.1c1.9,0,3.9,1.4,5.8,4.3s3.1,5.5,3.6,8c-5.3,21.7-8,46-8,73v310.8v2.2c0.1,19.7,1.5,36.3,4.3,49.8c1,3.4,3.6,6,7.9,8
	c4.3,1.9,8.9,3.1,13.7,3.6c4.8,0.5,9.4,0.7,13.7,0.7l7.2,0.7c1.4,0.5,2.1,3.2,2.2,8.3v1.3c-0.1,11.4-1.5,17.1-4.3,17.1l-1.7,0.1
	c-6.8,0.5-15.5,1.4-26,2.7l-0.9,0.1c-11.8,1.4-23.6,3-35.4,4.7c-11.1,1.6-21.7,3.2-31.8,4.8l-1.9,0.3c-10.6,1.7-19.3,3.3-26,4.7
	l-10.9,1.4c-2.8,0-4.3-4-4.3-11.9v-15.6c0-1.9-0.2-3.1-0.7-3.6s-1.1-0.3-2,0.6l-0.1,0.1c-20.2,20.2-44.6,30.4-73,30.4
	c-39.1,0-73.9-14.6-104.5-43.7c-30.6-29.2-45.9-67.1-45.9-113.8c0-48.2,16.5-88.5,49.5-121.1c33-32.5,74.4-48.8,124-48.8
	c19.8,0,36.6,2.2,50.6,6.5c1.4,0,2.1-3.2,2.2-9.7v-57.5c0-20.2-1.4-37.6-4.3-52c-2.4-7.6-14.7-11.5-36.9-11.6h-7.2
	c-2.9,0-4.3-4.8-4.3-14.5v-0.8c0.1-7.6,1.5-11.5,4.3-11.5c14.9-1.4,30-3.4,45.2-5.8l3.4-0.5c13.7-2.2,25.5-4.5,35.3-6.7l2.5-0.6
	c9.6-2.2,18.3-4.4,26-6.6l7-2c5.2-1.5,9.5-2.8,12.9-3.8l7.2-2.2L1711.2,0.1z M2525.6,182.3c1.4,2.9,2.2,7.2,2.2,13v1.3
	c-0.1,8.3-0.8,12.4-2.2,12.4c-33.9,3.8-55.3,10.5-64.1,19.9l-82.7,90.6c-1.4,2.4-2.2,4.3-2.2,5.8c0,2.9,1,5.3,2.9,7.2l86.8,109.1
	c16.4,21.2,35.9,34,58.6,38.3c1.9,0,2.9,5.1,2.9,15.2c0,4.3-1,7.7-2.9,10.1l-3.3-0.2c-7.1-0.4-15.2-1-24.4-1.7l-13.2-1
	c-8.3-0.6-15.9-1.2-23-1.7c-9.9-0.7-20.4-1.1-31.5-1.1c-11.6,0-22.5,0.4-32.9,1.1l-7.7,0.5c-6.1,0.4-12.5,0.9-19.3,1.4l-10.9,0.8
	c-11.1,0.8-20.8,1.5-29.1,1.9l-0.5-2.3c-0.7-3.4-1-5.6-1-6.4v-1.4c0.1-11.1,1-16.6,2.9-16.6c6.3-0.5,13.4-3,21.3-7.6
	c8-4.6,11.9-9.8,11.9-15.5c0-1-0.5-2.4-1.4-4.3l-49.2-57.1l-41.2,52c-3.4,3.9-5.1,8.4-5.1,13.7c0,2.4,1.1,4.6,3.3,6.5s5.2,3.6,9,5.1
	c3.9,1.4,7.6,2.5,11.2,3.3c3.1,0.6,6.6,1.3,10.5,1.9l4.4,0.7c3.3,0.5,5.9,1,7.9,1.4c0.9,0,1.4,4.2,1.5,12.6v0.4
	c0,7.2-1,11.8-2.9,13.7l-1.6-0.2c-5-0.5-16.4-1.6-34.2-3.1l-3.3-0.3c-18.2-1.5-33.3-2.2-45.5-2.3h-0.7c-10.1,0-19.9,0.4-29.3,1.1
	l-7.6,0.6c-4.7,0.4-9.7,0.8-14.9,1.2l-11.9,1c-10,0.8-18.6,1.5-26.1,1.9c-1-3.9-1.4-8.4-1.4-13.7v-1.3c0.1-7.8,1.1-11.7,2.9-11.7
	c12.1-1.9,24.2-5.4,36.5-10.5l1.3-0.5c11.4-4.8,19.2-9.5,23.4-14l80.5-88.4c1-1.4,1.4-3.4,1.4-5.8s-1-4.6-2.9-6.5l-92.6-116.4
	c-6.3-8.2-14.1-14.7-23.5-19.5s-18-7.2-25.7-7.2c-2.4,0-3.6-4.7-3.6-14v-0.4c0-5.8,0.7-10.1,2.2-13l32.7,1.8
	c39.3,2.2,61.4,3.2,66.4,3.2h0.6c6.7-0.1,39.1-1.8,97.1-5.1c1.5,2.4,2.2,6.7,2.2,13v0.9c-0.1,8.6-1.3,12.9-3.6,12.9
	c-6.7,0-13.9,1.7-21.3,5.1c-7.5,3.4-11.2,7.5-11.2,12.3c0,2.9,1.2,5.8,3.6,8.7l44.8,55.7l0.6-0.9c3.5-4.7,8.7-11.6,15.7-20.5
	l4.4-5.6c7.9-10.1,14.1-18.4,18.3-24.6l0.9-1.2c4.2-6.3,6.3-10.9,6.3-13.6c0-10.1-14.9-15.2-44.8-15.2c-1.9,0-2.9-4.3-2.9-13
	c0-6.7,1-11.3,2.9-13.7l30.7,1.8c36.9,2.2,57.3,3.2,61.1,3.2h0.5C2447.2,187.2,2475.5,185.5,2525.6,182.3L2525.6,182.3z
	 M858.5,182.3c2.9,0,5.4,1.6,7.6,4.7c2.2,3.1,3.3,5.7,3.3,7.6l-0.6,4.9c-0.4,3.1-1,7.2-1.6,12.2l-1.2,9c-1.2,8.8-2.2,16.7-3,23.5
	c-1,8-1.4,15.5-1.4,22.8v127.9v2.8c0.1,29.4,1.8,50.4,5.1,63c1,3.3,7.6,7.1,20.1,11.4l1.7,0.6c12.1,4.1,20,6.1,23.8,6.1
	c1.9,0,2.9,3.8,2.9,11.5v0.4c0,8-0.5,12.9-1.4,14.8l-2.6-0.2c-6.2-0.5-19-1.4-38.5-2.8l-9-0.6c-21.8-1.4-37.8-2.1-48.2-2.2h-1.7
	c-10.8,0-26.9,0.8-48.3,2.2l-26.3,1.8c-11.9,0.8-19.8,1.4-23.6,1.7c-1.4-1.9-2.1-6.7-2.2-14.3v-1.3c0.1-7.4,0.8-11.1,2.2-11.1
	c5.7,0,14.5-2.1,26.5-6.3l0.7-0.2c12.3-4.3,18.9-8.2,19.9-11.6c3.3-14.2,5-32.1,5.1-53.8V306.6c0-27-4.3-45.1-13-54.2
	c-3.4-3.9-8.3-7-14.8-9.4c-6.2-2.3-11.8-4-16.7-4.9l-1.7-0.3c-4.4-0.9-6.6-1.5-6.6-2v-2.1c0.1-15.5,1.3-23.2,3.6-23.2h0.6
	c9.6-0.1,29.5-3.2,59.8-9.2l5.8-1.2c31-6.2,53.1-11.5,66.2-15.7h0.1c0.6-0.1,2-0.4,4.2-1.1L858.5,182.3z M1209.3,180.1
	c28,0,50.7,11.8,68.3,35.4c17.6,23.6,26.4,59.5,26.4,107.7v71.6c0,30.8,1.7,52.8,5.1,65.8c1,3.4,7.7,7.2,20.3,11.6l1.2,0.4
	c11.9,4.1,19.9,6.1,24.1,6.1c1.5,0,2.3,4,2.5,11.9v1.4c0.2,7.1-0.2,11.6-1.1,13.4l-3.6-0.3c-6.7-0.5-19.4-1.4-38-2.7l-8.1-0.5
	c-22.3-1.5-38.6-2.2-49.1-2.2h-1.9c-11.4,0.1-28.1,0.9-50,2.5l-34.3,2.5c-4.8,0.4-8.3,0.6-10.5,0.8c-1.9-1.9-2.9-6.7-2.9-14.3v-0.5
	c0-8,1-11.9,2.9-11.9c5.3,0,13.7-2.2,25.3-6.5l1-0.4c10.9-4.2,16.8-7.9,17.8-11.2c3.3-14.2,5-32.1,5.1-53.8v-66.2
	c0-35.7-4.9-61.1-14.8-76.3c-9.9-15.2-25.7-22.8-47.4-22.8c-14.9,0-27,2.8-36.2,8.3s-13.7,13.4-13.7,23.5v121.4
	c0,30.8,1.7,52.8,5.1,65.8c1,3.4,7.4,7.2,19.2,11.6l1.7,0.6c10.9,3.9,18.1,5.9,21.8,5.9c1.4,0,2.2,3.7,2.5,11.1v0.8
	c0.2,8-0.1,12.9-1.1,14.8l-6.9-0.5c-4.9-0.4-11.6-0.9-20.1-1.5l-17.1-1.2c-23-1.6-40.1-2.5-51.2-2.5h-1.8c-11.3,0-28.5,0.8-51.5,2.4
	l-23.6,1.6c-11.9,0.8-19.6,1.4-23.1,1.7c-1.9-1.9-2.9-6.7-2.9-14.3v-0.5c0-8,1-11.9,2.9-11.9c5.3,0,14.2-2.2,26.8-6.5l1-0.4
	c11.9-4.2,18.3-7.9,19.2-11.2c3.4-14.5,5.1-32.8,5.1-54.9v-99c0-27-4.3-45.1-13-54.2c-3.4-3.9-8.4-7-15.2-9.4l-1.5-0.5
	c-5.9-2-11-3.5-15.3-4.4l-1.5-0.3c-4.2-0.9-6.2-1.5-6.2-2v-2.1c0.1-15.5,1.3-23.2,3.6-23.2h0.6c5.8-0.1,15.3-1.4,28.3-4l3.6-0.7
	l2-0.4c11.9-2.4,26.5-5.5,43.9-9.4l13.2-2.9c17-3.7,30.6-6.6,40.8-8.7c0.9,0,1.9-0.2,2.9-0.6l0.3-0.1c1.2-0.5,2.3-0.7,3.3-0.7
	l1.4-0.7c2.4,0,4.8,1.6,7.2,4.7s3.6,5.7,3.6,7.6l-1.2,8.3c-1.1,8.3-1.7,12.9-1.7,14.1v0.6c0,2.1,0.3,3.3,0.7,3.8
	c1,0,2.7-1.2,5.1-3.6C1135.7,192.6,1169.2,180.1,1209.3,180.1L1209.3,180.1z M2617,416.8c-11.3,0-21.1,4.1-29.2,12.2
	c-8.1,8.1-12.1,17.8-12.1,29.2s4,21.1,12.1,29.2s17.8,12.2,29.2,12.2c11.3,0,21.1-4.1,29.2-12.2c8.1-8.1,12.1-17.8,12.1-29.2
	s-4-21.1-12.1-29.2C2638,420.8,2628.3,416.8,2617,416.8z M2593.6,431.5l2.4,0.1c3.7,0.2,6.9,0.2,9.3,0.2h1.1c0.8,0,1.7,0,2.6,0
	l2.7-0.1c1.6,0,3-0.1,4.2-0.1c4.2,0,8.2,1,12,3.1s5.7,5.3,5.7,9.8c0,3.5-1,6.5-3,9.1c-2,2.5-3.9,4.2-5.9,5.1c-0.2,0.1-0.2,0.4,0,0.7
	c3.7,6.4,7.6,11.6,11.6,15.6c3.3,3.3,5.9,4.9,7.8,4.9c0.2,0.2,0.4,0.7,0.4,1.5c0,0.4-0.1,0.8-0.2,1.3c-0.4,0.1-1,0.2-2,0.2
	c-4.1,0-7.7-0.7-10.8-2.2s-5.2-2.8-6.4-4.2l-0.4-0.4c-1.2-1.3-2.7-3.3-4.5-5.8c-1-1.3-2-2.9-3.2-4.6l-2.2-3.4l-0.4-0.6
	c-0.6-0.9-1.1-1.5-1.4-1.7c-0.1-0.1-0.4-0.2-0.9-0.2c-0.6,0-0.9,0.4-0.9,1.1v10.5c-0.1,2.9,0.1,5.1,0.5,6.5c0.1,0.4,0.7,0.8,1.9,1.3
	c1.1,0.5,2,0.7,2.5,0.7c0.2,0,0.4,0.3,0.4,1s-0.1,1.2-0.4,1.7h-0.3c-0.6,0-1.5-0.1-2.6-0.2h-0.3c-1.5-0.2-3-0.3-4.3-0.4h-0.9
	c-0.9,0-1.6,0-2.3-0.1h-0.3c-1.4,0-3.3,0.1-5.9,0.3l-2.9,0.2c-1.4,0.1-2.3,0.2-2.8,0.2c-0.3-0.2-0.4-0.7-0.4-1.3v-0.4
	c0-0.7,0.1-1.1,0.2-1.1c0.6,0,1.5-0.2,2.7-0.7s1.9-0.9,2-1.3c0.4-1.6,0.5-3.6,0.5-6V442c0-2.4-0.2-4.4-0.5-6
	c-0.1-0.3-0.7-0.7-1.8-1.2l-0.2-0.1c-1.2-0.5-2.1-0.7-2.5-0.7c-0.1,0-0.2-0.4-0.2-1.3v-0.4C2593.5,431.9,2593.5,431.6,2593.6,431.5
	L2593.6,431.5z M494,219.1c-14,0-25.6,5.5-34.7,16.6c-9.2,11.1-15.2,23.7-18.1,37.9c-2.9,14.2-4.3,30-4.3,47.3
	c0,97.8,24.8,146.7,74.5,146.7c20.3,0,35.1-9.9,44.5-29.6c9.4-19.8,14.1-42.9,14.1-69.4C569.9,269,544.6,219.1,494,219.1L494,219.1z
	 M1561.5,218.4c-22.7,0-39.2,9-49.5,27.1c-10.4,18.1-15.5,46.9-15.5,86.4c0,87.2,21.7,130.8,65.1,130.8c16.4,0,30-4.7,40.9-14.1
	s16.3-20.8,16.3-34.3V282.7c0-5.8-0.5-11.3-1.4-16.6c-1-5.3-3.1-12-6.5-20.2s-9.3-14.8-17.7-19.9
	C1584.5,220.9,1574,218.4,1561.5,218.4L1561.5,218.4z M2615.2,435.7c-1.7,0-2.7,0.2-3.1,0.5s-0.5,0.8-0.5,1.5v0.1
	c-0.1,0.7-0.2,2.6-0.2,5.6v8.8c0,1.3,0.2,2.1,0.7,2.4s1.4,0.4,3,0.5h0.8c3.5,0,5.3-3,5.3-9.1
	C2621.1,439.1,2619.1,435.7,2615.2,435.7L2615.2,435.7z M1952,219.1c-18.8,0-32.5,9-41.2,27.1s-13,35.8-13,53.1
	c0,2.9,1.7,4.3,5.1,4.3h91.9c6.8,0,10.1-4.6,10.1-13.7c0-18.3-4.9-34.7-14.8-49.1C1980.1,226.3,1967.4,219.1,1952,219.1L1952,219.1z
	 M808.2,3.7c14.7,0,27.2,5.2,37.6,15.5c10.4,10.4,15.5,23,15.5,37.9s-5.2,27.6-15.5,37.9c-10.4,10.4-22.9,15.5-37.6,15.5
	c-14.7,0-27.4-5.1-38-15.2c-10.6-10.6-15.9-23.4-15.9-38.3s5.3-27.6,15.9-37.9C780.9,8.9,793.5,3.7,808.2,3.7z"/>
</svg>
