<svg width="151" height="28" viewBox="0 0 151 28" fill="none" xmlns="http://www.w3.org/2000/svg">
<path d="M36.4414 22.908V5.08984H49.3106L48.7372 8.39893H40.2639V12.2808H47.6542V15.5898H40.2639V19.5989H49.438V22.908H36.4414Z" fill="#003333"/>
<path d="M54.2164 22.9097L49.502 10.2461H53.4519L56.1277 18.9643H56.5099L59.1857 10.2461H63.1357L58.4212 22.9097C58.4212 22.9097 54.2164 22.9097 54.2164 22.9097Z" fill="#003333"/>
<path d="M72.8824 18.3274L75.813 19.7911C74.6663 22.082 72.6276 23.2911 69.7607 23.2911C67.722 23.2911 66.0656 22.7183 64.7277 21.5092C63.4535 20.3001 62.8164 18.7092 62.8164 16.6729C62.8164 14.7001 63.4535 13.1092 64.7277 11.9001C66.0019 10.6274 67.5946 10.0547 69.5696 10.0547C71.4808 10.0547 73.0098 10.6274 74.0929 11.8365C75.1759 13.0456 75.7493 14.5729 75.7493 16.5456C75.7493 17.0547 75.7493 17.3729 75.7493 17.5638H66.7027C66.7664 18.4547 67.0849 19.2183 67.6583 19.7274C68.2317 20.2365 68.9325 20.4911 69.8244 20.4911C71.0986 20.3638 72.1179 19.6638 72.8824 18.3274ZM69.3784 12.7274C68.6139 12.7274 68.0405 12.982 67.5309 13.4274C67.0212 13.8729 66.7664 14.5092 66.6389 15.3365H71.8631C71.7994 13.5547 70.9074 12.7274 69.3784 12.7274Z" fill="#003333"/>
<path d="M77.4062 22.9065V10.2428H80.9102V12.5974H81.2925C81.9933 11.0065 82.8852 9.98828 84.4779 9.98828C84.9876 9.98828 85.4973 10.0519 85.8795 10.1792V13.8701C85.3699 13.6792 84.7328 13.5519 84.0957 13.5519C83.2038 13.5519 82.4393 13.8065 81.9296 14.3156C81.4199 14.8246 81.1014 15.5883 81.1014 16.6065V22.9701L77.4062 22.9065Z" fill="#003333"/>
<path d="M102.571 9.98942C104.1 9.98942 105.31 10.4349 106.075 11.3258C106.903 12.2167 107.285 13.4258 107.285 15.0167V22.9712H103.59V15.5258C103.59 13.8076 102.889 12.9803 101.488 12.9803C100.723 12.9803 100.15 13.2349 99.6402 13.744C99.1943 14.2531 98.9394 14.8894 98.9394 15.7803V22.9076H95.2443V15.5258C95.2443 13.8076 94.5435 12.9803 93.1419 12.9803C92.3774 12.9803 91.804 13.2349 91.2944 13.744C90.8484 14.2531 90.5936 14.8894 90.5936 15.7803V22.9076H86.8984V10.244H90.4024V12.0258H90.7847C91.6766 10.7531 92.6322 9.92578 94.225 9.92578C96.0725 9.92578 97.2193 10.7531 98.1112 12.1531H98.4935C99.4491 10.944 100.787 9.98942 102.571 9.98942Z" fill="#003333"/>
<path d="M115.44 23.2246C113.465 23.2246 111.808 22.5883 110.534 21.3792C109.26 20.1065 108.623 18.5156 108.623 16.6065C108.623 14.6337 109.26 13.0428 110.534 11.8337C111.808 10.561 113.401 9.98828 115.44 9.98828C117.479 9.98828 119.071 10.6246 120.345 11.8337C121.62 13.0428 122.257 14.6337 122.257 16.6065C122.257 18.5156 121.62 20.1065 120.345 21.3792C119.135 22.6519 117.479 23.2246 115.44 23.2246ZM113.274 19.3428C113.783 19.9792 114.548 20.361 115.44 20.361C116.332 20.361 117.096 20.0428 117.606 19.3428C118.116 18.7065 118.434 17.7519 118.434 16.6065C118.434 15.461 118.179 14.5065 117.606 13.8701C117.096 13.1701 116.332 12.8519 115.44 12.8519C114.548 12.8519 113.783 13.1701 113.274 13.8701C112.764 14.5065 112.446 15.461 112.446 16.6701C112.509 17.7519 112.764 18.7065 113.274 19.3428Z" fill="#003333"/>
<path d="M129.711 23.2246C127.736 23.2246 126.08 22.5883 124.806 21.3792C123.532 20.1065 122.895 18.5156 122.895 16.6065C122.895 14.6337 123.532 13.0428 124.806 11.8337C126.08 10.561 127.673 9.98828 129.711 9.98828C131.686 9.98828 133.343 10.6246 134.617 11.8337C135.891 13.0428 136.528 14.6337 136.528 16.6065C136.528 18.5156 135.891 20.1065 134.617 21.3792C133.343 22.6519 131.686 23.2246 129.711 23.2246ZM127.545 19.3428C128.055 19.9792 128.819 20.361 129.711 20.361C130.603 20.361 131.368 20.0428 131.878 19.3428C132.387 18.7065 132.706 17.7519 132.706 16.6065C132.706 15.461 132.451 14.5065 131.878 13.8701C131.368 13.1701 130.603 12.8519 129.711 12.8519C128.819 12.8519 128.055 13.1701 127.545 13.8701C127.036 14.5065 126.717 15.461 126.717 16.6701C126.781 17.7519 127.036 18.7065 127.545 19.3428Z" fill="#003333"/>
<path d="M143.091 23.2251C141.371 23.2251 139.969 22.5887 138.822 21.3796C137.676 20.1069 137.166 18.516 137.166 16.6069C137.166 14.6978 137.739 13.1069 138.822 11.8342C139.905 10.5614 141.307 9.98871 142.964 9.98871C144.747 9.98871 145.894 10.8796 146.659 12.0887H146.913V5.53416L150.609 5.15234V23.0342H147.105V20.8705H146.85C146.085 22.3978 145.002 23.2251 143.091 23.2251ZM143.983 20.3614C144.811 20.3614 145.576 19.9796 146.149 19.2796C146.722 18.5796 147.041 17.6887 147.041 16.6069C147.041 15.5251 146.722 14.6342 146.149 13.9342C145.576 13.2342 144.875 12.8523 143.983 12.8523C143.091 12.8523 142.326 13.1705 141.817 13.8705C141.307 14.5069 140.989 15.4614 140.989 16.6705C140.989 17.816 141.243 18.7705 141.817 19.4069C142.326 20.0433 143.027 20.3614 143.983 20.3614Z" fill="#003333"/>
<path d="M16.7575 14.3946C18.2629 12.8909 18.2629 10.4529 16.7575 8.94917C15.2521 7.44546 12.8113 7.44546 11.3059 8.94917C9.80046 10.4529 9.80046 12.8909 11.3059 14.3946C12.8113 15.8983 15.2521 15.8983 16.7575 14.3946Z" fill="#003333"/>
<path fill-rule="evenodd" clip-rule="evenodd" d="M19.0651 0H8.96686C4.02252 0 0 4.01794 0 8.95665V19.0433C0 23.9821 4.02252 28 8.96686 28H19.0651C24.0094 28 28.0319 23.9821 28.0319 19.0433V8.95665C28.0738 4.01794 24.0513 0 19.0651 0ZM14.0369 5.27354C17.5566 5.27354 20.4478 8.11958 20.4478 11.6771C20.4478 15.1928 17.5985 18.0807 14.0369 18.0807C10.5172 18.0807 7.62602 15.2347 7.62602 11.6771C7.62602 8.16144 10.4753 5.27354 14.0369 5.27354ZM22.2496 21.3871C22.1238 21.5964 21.9143 21.6383 21.4115 21.7638C16.551 23.0613 11.439 23.0613 6.62039 21.7638C6.15948 21.6383 5.94998 21.5546 5.78237 21.3871C5.61477 21.2197 5.82427 20.5501 5.94998 20.1734C6.28519 19.2945 6.36899 19.2108 7.33272 19.4619C11.6904 20.5919 16.2996 20.5919 20.6573 19.4619C21.621 19.2108 21.7467 19.2945 22.04 20.2152C22.2077 20.5919 22.4172 21.2197 22.2496 21.3871Z" fill="#003333"/>
</svg>
