<?xml version="1.0" encoding="utf-8"?>
<!-- Generator: Adobe Illustrator 21.1.0, SVG Export Plug-In . SVG Version: 6.00 Build 0)  -->
<svg version="1.1" id="Ebene_1" xmlns="http://www.w3.org/2000/svg" xmlns:xlink="http://www.w3.org/1999/xlink" x="0px" y="0px"
	 viewBox="0 0 255.118 77.847" style="enable-background:new 0 0 255.118 77.847;" xml:space="preserve">
<style type="text/css">
	.st0{fill:#FFCB00;}
	.st1{fill:#FDD900;}
	.st2{fill:#47BAEC;}
	.st3{fill:#00537B;}
</style>
<g>
	<g>
		<g>
			<path class="st0" d="M60.858,25.476L60.858,25.476L60.858,25.476z"/>
		</g>
		<path class="st1" d="M2.844,24.056h26.138L14.273,49.531c-1.093,1.893,0.273,4.26,2.459,4.26h29.417L33.081,76.427
			c-1.093,1.893-3.826,1.893-4.919,0L0.385,28.315C-0.709,26.422,0.658,24.056,2.844,24.056z"/>
		<path class="st2" d="M58.398,24.056H28.982L42.05,1.42c1.093-1.893,3.826-1.893,4.919,0l13.888,24.055
			C60.379,24.647,59.491,24.056,58.398,24.056z"/>
		<path class="st2" d="M60.858,25.476l13.888,24.055c1.093,1.893-0.273,4.26-2.459,4.26H46.149l14.709-25.476
			C61.404,27.369,61.336,26.304,60.858,25.476z"/>
		<path class="st3" d="M14.273,49.531l14.709-25.475h29.416c1.093,0,1.981,0.592,2.459,1.42l0,0c0.478,0.828,0.546,1.893,0,2.839
			L46.149,53.791H16.733C14.546,53.791,13.18,51.424,14.273,49.531z"/>
	</g>
	<path class="st3" d="M88.395,24.056h3.64c0.46,0,0.885,0.245,1.115,0.644l1.485,2.57c2.982-1.898,5.259-3.643,9.845-3.643
		c3.668,0,6.107,1.641,6.947,4.046c2.964-1.946,6.636-4.046,11.452-4.046c6.392,0,8.167,4.449,7.21,10.469l-2.953,18.609
		c-0.099,0.626-0.639,1.086-1.272,1.086h-5.379c-0.714,0-1.259-0.638-1.146-1.343l2.941-18.475c0.443-2.78-0.773-4.046-2.66-4.046
		c-3.108,0-5.267,0.575-7.629,2.336c-0.031,0.246-0.244,1.607-0.274,1.884l-2.953,18.558c-0.1,0.625-0.639,1.086-1.272,1.086h-5.382
		c-0.713,0-1.258-0.637-1.147-1.342l2.913-18.477c0.443-2.78-0.768-4.046-2.654-4.046c-3.156,0-4.839,0.788-7.424,2.551
		l-3.196,20.227c-0.099,0.626-0.639,1.087-1.272,1.087h-5.381c-0.714,0-1.258-0.638-1.147-1.342l4.32-27.307
		C87.222,24.517,87.762,24.056,88.395,24.056z"/>
	<path class="st3" d="M147.382,23.496c4.001-0.211,10.17,0.605,13.301,2.941c0.389,0.29,0.596,0.761,0.525,1.241l-3.655,24.951
		c-0.093,0.633-0.635,1.101-1.275,1.101h-3.294c-0.684,0-1.316-0.368-1.654-0.963l-1.188-2.089c-1.47,1.834-5.426,3.444-8.999,3.444
		c-5.799,0-10.13-4.681-7.798-16.945C135.701,24.871,142.113,23.748,147.382,23.496z M144.008,47.483
		c3.234,0,5.009-1.064,6.815-2.81l2.142-14.345c-1.758-0.619-4.317-0.882-5.967-0.526c-2.531,0.518-4.861,1.302-6.011,8.795
		C140.125,44.23,140.503,47.483,144.008,47.483z"/>
	<path class="st3" d="M218.488,24.056h5.381c0.714,0,1.258,0.638,1.147,1.342l-4.32,27.307c-0.099,0.626-0.639,1.087-1.272,1.087
		h-5.38c-0.713,0-1.258-0.638-1.147-1.342l4.319-27.307C217.315,24.517,217.855,24.056,218.488,24.056z M218.681,13.731
		c0.112-0.84,0.672-1.4,1.568-1.4h5.88c0.84,0,1.146,0.617,1.033,1.4l-0.756,4.964c-0.112,0.84-0.697,1.288-1.482,1.288h-5.879
		c-0.785,0-1.232-0.503-1.121-1.288L218.681,13.731z"/>
	<path class="st3" d="M231.356,24.056h3.672c0.46,0,0.886,0.246,1.116,0.645l1.453,2.52c2.859-1.837,5.51-3.668,10.047-3.668
		c6.921,0,8.117,4.777,7.21,10.445l-2.978,18.71c-0.1,0.625-0.639,1.086-1.272,1.086h-5.381c-0.713,0-1.258-0.638-1.147-1.342
		l2.937-18.576c0.467-2.957-0.666-4.022-2.629-4.022c-3.155,0-5.014,0.812-7.599,2.577l-3.221,20.278
		c-0.099,0.626-0.639,1.086-1.272,1.086h-5.382c-0.714,0-1.258-0.638-1.147-1.342l4.32-27.307
		C230.183,24.517,230.723,24.056,231.356,24.056z"/>
	<path class="st3" d="M183.301,60.005c-0.232-0.405,0.06-0.908,0.526-0.908h10.328c2.816,0,5.04-1.735,5.6-5.319l0.277-2.072
		c-2.514,1.518-5.214,2.128-7.734,2.128c-8.744,0-10.282-6.716-8.727-16.612c1.604-10.055,6.386-13.686,13.059-13.686
		c5.205,0,11.12,0.7,14.337,1.397c0.67,0.145,1.108,0.783,1.002,1.461l-4.357,27.809c-1.159,7.245-5.54,11.511-13.574,11.289h-6.682
		c-0.574-0.015-1.099-0.327-1.384-0.826L183.301,60.005z M194.429,47.682c2.481,0,3.817-0.224,6.415-1.215l2.713-16.939h-6.034
		c-4.483,0-5.597,5.566-6.081,8.548C190.635,43.315,189.955,47.682,194.429,47.682z"/>
	<path class="st3" d="M184.199,23.637c-0.229-0.005-0.459-0.009-0.695-0.009c-0.808,0-1.587,0.12-2.344,0.304
		c-0.036,0.008-0.073,0.015-0.109,0.023c-0.142,0.036-0.283,0.073-0.423,0.115c-2.441,0.625-4.189,1.865-6.288,3.201l-1.485-2.57
		c-0.23-0.398-0.655-0.644-1.115-0.644h-0.442H168.1h-0.005c-0.634,0-1.173,0.461-1.272,1.087l-4.32,27.307
		c-0.111,0.705,0.433,1.342,1.147,1.342h5.38c0.634,0,1.173-0.461,1.272-1.087l2.827-17.872c2.086-2.417,4.204-3.126,6.855-3.271
		c0.446-0.024,0.854-0.26,1.08-0.646l3.719-6.349C184.922,24.298,185.125,23.689,184.199,23.637z"/>
</g>
</svg>
