<svg width="790" height="255" viewBox="0 0 790 255" fill="none" xmlns="http://www.w3.org/2000/svg">
<path d="M0.0585938 251.779H57.3787V100.43L110.341 251.779H156.599L209.227 100.788V251.779H266.547V0.00830078H199.17L133.805 174.311L67.77 0.00830078H0.0585938V251.779Z" fill="black"/>
<path d="M280.701 151.358C280.701 214.48 317.238 254.648 362.826 254.648C390.648 254.648 410.425 241.02 420.817 223.446V251.779H478.137V51.6536H420.817V79.9867C410.76 62.413 390.983 48.7844 363.161 48.7844C317.238 48.7844 280.701 88.2356 280.701 151.358ZM420.817 151.716C420.817 183.636 401.71 201.21 379.921 201.21C358.468 201.21 339.026 183.277 339.026 151.358C339.026 119.438 358.468 102.223 379.921 102.223C401.71 102.223 420.817 119.797 420.817 151.716Z" fill="black"/>
<path d="M497.301 182.201C497.301 234.205 524.453 251.779 563.337 251.779H592.499V199.775H572.052C559.314 199.775 554.621 194.754 554.621 182.919V102.582H592.164V51.6536H554.621V2.87749L497.301 20.0141V51.6536V102.582V182.201Z" fill="black"/>
<path d="M696.142 97.9191C715.249 97.9191 731.339 110.472 731.339 132.349H659.605C662.957 110.113 677.371 97.9191 696.142 97.9191ZM782.491 196.338L724.635 185.429C719.942 196.189 710.892 204.796 694.802 204.796C676.365 204.796 661.281 192.602 659.27 166.421H788.994C789.665 160.324 790 154.227 790 148.488C790 87.5184 751.451 48.7844 696.813 48.7844C641.169 48.7844 602.285 88.2357 602.285 151.716C602.285 215.197 641.839 254.648 696.813 254.648C743.406 254.648 772.313 224.877 782.491 196.338Z" fill="black"/>
</svg>
