<svg xmlns="http://www.w3.org/2000/svg" xmlns:xlink="http://www.w3.org/1999/xlink" width="500" zoomAndPan="magnify" viewBox="0 0 375 67.499998" height="90" preserveAspectRatio="xMidYMid meet" version="1.0"><defs><clipPath id="id1"><path d="M 2 0.671875 L 53 0.671875 L 53 67.003906 L 2 67.003906 Z M 2 0.671875 " clip-rule="nonzero"/></clipPath><clipPath id="id2"><path d="M 62 0.671875 L 121 0.671875 L 121 67.003906 L 62 67.003906 Z M 62 0.671875 " clip-rule="nonzero"/></clipPath><clipPath id="id3"><path d="M 202 0.671875 L 218 0.671875 L 218 67.003906 L 202 67.003906 Z M 202 0.671875 " clip-rule="nonzero"/></clipPath><clipPath id="id4"><path d="M 231 0.671875 L 295 0.671875 L 295 67.003906 L 231 67.003906 Z M 231 0.671875 " clip-rule="nonzero"/></clipPath><clipPath id="id5"><path d="M 126 0.671875 L 197 0.671875 L 197 67.003906 L 126 67.003906 Z M 126 0.671875 " clip-rule="nonzero"/></clipPath><clipPath id="id6"><path d="M 302 0.671875 L 373 0.671875 L 373 67.003906 L 302 67.003906 Z M 302 0.671875 " clip-rule="nonzero"/></clipPath></defs><g clip-path="url(#id1)"><path fill="rgb(0%, 0%, 0%)" d="M 2.628906 0.671875 L 27.472656 0.671875 C 30.777344 0.652344 34.050781 0.96875 37.292969 1.617188 C 40.378906 2.246094 43.070312 3.332031 45.371094 4.875 C 47.734375 6.476562 49.5625 8.554688 50.847656 11.109375 C 52.199219 13.722656 52.878906 17.011719 52.878906 20.976562 C 52.878906 24.882812 52.246094 28.15625 50.988281 30.796875 C 49.8125 33.359375 48.078125 35.464844 45.796875 37.117188 C 43.589844 38.699219 40.972656 39.816406 37.953125 40.46875 C 34.714844 41.152344 31.441406 41.484375 28.132812 41.460938 L 17.359375 41.460938 L 17.359375 67.535156 L 2.628906 67.535156 Z M 17.363281 28.996094 L 27.1875 28.996094 C 28.472656 29 29.75 28.875 31.011719 28.621094 C 32.1875 28.390625 33.292969 27.964844 34.316406 27.34375 C 35.316406 26.730469 36.101562 25.910156 36.679688 24.890625 C 37.277344 23.851562 37.578125 22.542969 37.574219 20.96875 C 37.574219 19.269531 37.183594 17.898438 36.394531 16.859375 C 35.589844 15.800781 34.585938 14.996094 33.371094 14.449219 C 32.0625 13.859375 30.695312 13.496094 29.265625 13.359375 C 27.820312 13.207031 26.371094 13.128906 24.917969 13.125 L 17.359375 13.125 Z M 17.363281 28.996094 " fill-opacity="1" fill-rule="nonzero"/></g><g clip-path="url(#id2)"><path fill="rgb(0%, 0%, 0%)" d="M 62.128906 0.671875 L 76.863281 0.671875 L 76.863281 25.605469 L 105.480469 25.605469 L 105.480469 0.671875 L 120.210938 0.671875 L 120.210938 67.535156 L 105.480469 67.535156 L 105.480469 38.636719 L 76.863281 38.636719 L 76.863281 67.535156 L 62.128906 67.535156 Z M 62.128906 0.671875 " fill-opacity="1" fill-rule="nonzero"/></g><g clip-path="url(#id3)"><path fill="rgb(0%, 0%, 0%)" d="M 202.972656 0.671875 L 217.707031 0.671875 L 217.707031 67.535156 L 202.972656 67.535156 Z M 202.972656 0.671875 " fill-opacity="1" fill-rule="nonzero"/></g><g clip-path="url(#id4)"><path fill="rgb(0%, 0%, 0%)" d="M 231.125 0.671875 L 251.148438 0.671875 L 279.566406 47.136719 L 279.753906 47.136719 L 279.753906 0.671875 L 294.488281 0.671875 L 294.488281 67.535156 L 275.222656 67.535156 L 246.039062 19.9375 L 245.847656 19.9375 L 245.847656 67.535156 L 231.125 67.535156 Z M 231.125 0.671875 " fill-opacity="1" fill-rule="nonzero"/></g><g clip-path="url(#id5)"><path fill="rgb(0%, 0%, 0%)" d="M 155.632812 0.8125 L 167.816406 0.8125 L 196.914062 67.675781 L 180.285156 67.675781 L 174.523438 53.511719 L 161.859375 25.191406 L 142.980469 67.683594 L 126.734375 67.683594 Z M 155.632812 0.8125 " fill-opacity="1" fill-rule="nonzero"/></g><g clip-path="url(#id6)"><path fill="rgb(0%, 0%, 0%)" d="M 331.097656 0.8125 L 343.285156 0.8125 L 372.371094 67.675781 L 355.75 67.675781 L 349.988281 53.511719 L 337.324219 25.199219 L 318.445312 67.6875 L 302.199219 67.6875 Z M 331.097656 0.8125 " fill-opacity="1" fill-rule="nonzero"/></g></svg>