<?xml version="1.0" encoding="utf-8"?>
<!-- Generator: Adobe Illustrator 19.0.0, SVG Export Plug-In . SVG Version: 6.00 Build 0)  -->
<svg version="1.1" id="Ebene_1" xmlns="http://www.w3.org/2000/svg" xmlns:xlink="http://www.w3.org/1999/xlink" x="0px" y="0px"
	 viewBox="-131 402 333 36.9" style="enable-background:new -131 402 333 36.9;" xml:space="preserve">
<style type="text/css">
	.st0{fill:#08E9C5;}
	.st1{fill:#1B242E;}
</style>
<g id="Neues_Logo">
	<path class="st0" d="M-124.5,437.3c-1.9-0.8-3.4-2-4.6-3.4c-1.1-1.4-1.7-3-1.8-4.7h7.5c0.1,1.1,0.7,2,1.7,2.7
		c1,0.7,2.2,1.1,3.7,1.1c1.4,0,2.5-0.3,3.3-0.8c0.8-0.5,1.2-1.2,1.2-2.1c0-0.9-0.5-1.6-1.5-2.1c-1-0.5-2.5-1-4.7-1.5
		c-2.2-0.5-4-1-5.4-1.6c-1.4-0.5-2.6-1.4-3.6-2.5c-1-1.1-1.5-2.6-1.5-4.5c0-1.6,0.5-3,1.4-4.3c0.9-1.3,2.3-2.3,4.1-3.1
		c1.8-0.7,3.8-1.1,6.2-1.1c3.5,0,6.3,0.8,8.4,2.5c2.1,1.7,3.3,4,3.5,6.8h-7.2c-0.1-1.1-0.6-2-1.5-2.7c-0.9-0.7-2-1-3.5-1
		c-1.4,0-2.4,0.2-3.1,0.7c-0.7,0.5-1.1,1.1-1.1,2c0,1,0.5,1.7,1.5,2.2c1,0.5,2.5,1,4.6,1.5c2.1,0.5,3.9,1,5.3,1.6
		c1.4,0.5,2.6,1.4,3.6,2.5c1,1.1,1.5,2.6,1.6,4.5c0,1.6-0.5,3.1-1.4,4.4c-0.9,1.3-2.3,2.3-4.1,3s-3.8,1.1-6.2,1.1
		C-120.4,438.5-122.6,438.1-124.5,437.3z"/>
	<path class="st0" d="M-97.9,416.2c1.2-2.2,2.8-3.9,4.9-5.1c2-1.2,4.3-1.8,6.9-1.8c2.2,0,4.1,0.4,5.8,1.3c1.7,0.9,3,1.9,4,3.2v-4
		h7.5v28.3h-7.5v-4.1c-1,1.3-2.3,2.4-4,3.3c-1.7,0.9-3.6,1.3-5.8,1.3c-2.5,0-4.8-0.6-6.8-1.8c-2-1.2-3.7-3-4.9-5.2
		c-1.2-2.2-1.8-4.8-1.8-7.7C-99.7,421-99.1,418.4-97.9,416.2z M-77.5,419.5c-0.7-1.2-1.7-2.2-2.9-2.9c-1.2-0.7-2.5-1-3.9-1
		c-1.4,0-2.7,0.3-3.8,1c-1.2,0.6-2.1,1.6-2.9,2.8c-0.7,1.2-1.1,2.7-1.1,4.4c0,1.7,0.4,3.2,1.1,4.5c0.7,1.3,1.7,2.3,2.9,2.9
		c1.2,0.7,2.5,1,3.8,1c1.4,0,2.7-0.3,3.9-1c1.2-0.7,2.2-1.6,2.9-2.9c0.7-1.2,1.1-2.7,1.1-4.5S-76.8,420.7-77.5,419.5z"/>
	<path class="st0" d="M-59.3,416.2c1.2-2.2,2.8-3.9,4.9-5.1c2-1.2,4.3-1.8,6.9-1.8c2.2,0,4.1,0.4,5.8,1.3c1.7,0.9,3,1.9,4,3.2v-4
		h7.5v28.3h-7.5v-4.1c-1,1.3-2.3,2.4-4,3.3c-1.7,0.9-3.6,1.3-5.8,1.3c-2.5,0-4.8-0.6-6.8-1.8c-2-1.2-3.7-3-4.9-5.2
		c-1.2-2.2-1.8-4.8-1.8-7.7C-61.1,421-60.5,418.4-59.3,416.2z M-38.9,419.5c-0.7-1.2-1.7-2.2-2.9-2.9c-1.2-0.7-2.5-1-3.9-1
		c-1.4,0-2.7,0.3-3.8,1c-1.2,0.6-2.1,1.6-2.9,2.8c-0.7,1.2-1.1,2.7-1.1,4.4c0,1.7,0.4,3.2,1.1,4.5c0.7,1.3,1.7,2.3,2.9,2.9
		c1.2,0.7,2.5,1,3.8,1c1.4,0,2.7-0.3,3.9-1c1.2-0.7,2.2-1.6,2.9-2.9c0.7-1.2,1.1-2.7,1.1-4.5S-38.1,420.7-38.9,419.5z"/>
	<path class="st0" d="M-15.7,437.3c-1.9-0.8-3.4-2-4.6-3.4s-1.7-3-1.8-4.7h7.5c0.1,1.1,0.7,2,1.7,2.7c1,0.7,2.2,1.1,3.7,1.1
		c1.4,0,2.5-0.3,3.3-0.8c0.8-0.5,1.2-1.2,1.2-2.1c0-0.9-0.5-1.6-1.5-2.1c-1-0.5-2.5-1-4.7-1.5c-2.2-0.5-4-1-5.4-1.6
		c-1.4-0.5-2.6-1.4-3.6-2.5s-1.5-2.6-1.5-4.5c0-1.6,0.5-3,1.4-4.3c0.9-1.3,2.3-2.3,4.1-3.1c1.8-0.7,3.8-1.1,6.2-1.1
		c3.5,0,6.3,0.8,8.4,2.5c2.1,1.7,3.3,4,3.5,6.8H-5c-0.1-1.1-0.6-2-1.5-2.7c-0.9-0.7-2-1-3.5-1c-1.4,0-2.4,0.2-3.1,0.7
		c-0.7,0.5-1.1,1.1-1.1,2c0,1,0.5,1.7,1.5,2.2c1,0.5,2.5,1,4.6,1.5c2.1,0.5,3.9,1,5.3,1.6c1.4,0.5,2.6,1.4,3.6,2.5
		c1,1.1,1.5,2.6,1.6,4.5c0,1.6-0.5,3.1-1.4,4.4c-0.9,1.3-2.3,2.3-4.1,3s-3.8,1.1-6.2,1.1C-11.6,438.5-13.8,438.1-15.7,437.3z"/>
	<path class="st1" d="M56.5,412.6c2.2,2.1,3.3,5.1,3.3,8.9v16.6h-7.5v-15.6c0-2.2-0.6-3.9-1.8-5.1c-1.2-1.2-2.8-1.8-4.8-1.8
		s-3.6,0.6-4.8,1.8c-1.2,1.2-1.8,2.9-1.8,5.1v15.6h-7.5v-15.6c0-2.2-0.6-3.9-1.8-5.1s-2.8-1.8-4.8-1.8c-2.1,0-3.7,0.6-4.9,1.8
		c-1.2,1.2-1.8,2.9-1.8,5.1v15.6H11v-28.3h7.5v3.4c1-1.2,2.2-2.1,3.7-2.8c1.5-0.7,3.2-1,5-1c2.3,0,4.4,0.5,6.2,1.4
		c1.8,0.9,3.2,2.3,4.2,4c1-1.6,2.4-2.9,4.2-3.9c1.8-1,3.8-1.5,5.9-1.5C51.4,409.4,54.3,410.4,56.5,412.6z"/>
	<path class="st1" d="M96.7,426.1H75.1c0.2,2,0.9,3.6,2.2,4.8c1.3,1.2,2.9,1.7,4.9,1.7c2.8,0,4.7-1.1,5.9-3.4h8.1
		c-0.9,2.7-2.5,5-4.9,6.7c-2.4,1.8-5.4,2.6-8.9,2.6c-2.8,0-5.4-0.6-7.7-1.8s-4-2.9-5.3-5.1c-1.3-2.2-1.9-4.8-1.9-7.7
		c0-2.9,0.6-5.5,1.9-7.7c1.2-2.2,3-3.9,5.2-5.1c2.2-1.2,4.8-1.8,7.7-1.8c2.8,0,5.3,0.6,7.6,1.7c2.2,1.2,3.9,2.8,5.2,4.9
		c1.2,2.1,1.8,4.6,1.8,7.3C96.9,424.3,96.8,425.3,96.7,426.1z M89.2,421.3c0-1.8-0.7-3.3-2.1-4.4c-1.4-1.1-3-1.7-5-1.7
		c-1.9,0-3.4,0.5-4.7,1.6c-1.3,1.1-2,2.6-2.3,4.5H89.2z"/>
	<path class="st1" d="M106,409.8v-7h7.5v7h6.6v5.9h-6.6v13.7c0,1,0.2,1.6,0.7,2.1c0.5,0.4,1.3,0.6,2.4,0.6h3.5v6h-4.7
		c-6.3,0-9.4-2.9-9.4-8.8v-13.6"/>
	<path class="st1" d="M139.2,410.7c1.5-0.9,3.3-1.3,5.3-1.3v7.5h-2c-2.3,0-4.1,0.5-5.3,1.6c-1.2,1.1-1.8,2.9-1.8,5.5v14.1h-7.5
		v-28.3h7.5v4.4C136.4,412.7,137.6,411.5,139.2,410.7z"/>
	<rect x="152" y="409.8" class="st1" width="7.5" height="28.3"/>
	<path class="st1" d="M180.7,430.7l-4.5,7.4h-8.4l8.8-13.4"/>
	<path class="st0" d="M179.4,420.1l-11.9-17.7h8.6l8.1,11.9l7.3-11.9h8.4l-11.7,17.9l11.9,17.7h-8.6l-8.1-12"/>
</g>
</svg>
