<svg id="Ebene_1" data-name="Ebene 1" xmlns="http://www.w3.org/2000/svg" xmlns:xlink="http://www.w3.org/1999/xlink" viewBox="0 0 784.32 292.68"><defs><style>.cls-1{fill:none;}.cls-2{clip-path:url(#clip-path);}.cls-3{fill:#2fac68;}.cls-4{clip-path:url(#clip-path-2);}.cls-5{fill:#656b79;}</style><clipPath id="clip-path" transform="translate(-28.78 -151.51)"><rect id="SVGID" class="cls-1" x="346.14" y="151.51" width="149.59" height="149.59"/></clipPath><clipPath id="clip-path-2" transform="translate(-28.78 -151.51)"><rect id="SVGID-2" data-name="SVGID" class="cls-1" x="28.78" y="151.51" width="784.32" height="292.68"/></clipPath></defs><g class="cls-2"><path class="cls-3" d="M439.17,195a26.69,26.69,0,0,0-19.81,8.79l-14.58-12.65a11.63,11.63,0,0,0,2.52-7.19,11.85,11.85,0,1,0-5.59,10L416.81,207a27,27,0,0,0-2.28,4.2H383a11.68,11.68,0,1,0,.78,4.12h29.39a27,27,0,0,0-.81,6.46,26.58,26.58,0,0,0,1.83,9.68l-24.8,13.92a12.55,12.55,0,1,0,1.72,3.76l24.86-14a26.79,26.79,0,0,0,7.67,8.43L412.22,265a11.67,11.67,0,1,0,3.41,2.36l11.54-21.61a26.8,26.8,0,1,0,12-50.77Zm0,50a23.17,23.17,0,1,1,23.17-23.17A23.17,23.17,0,0,1,439.17,245Z" transform="translate(-28.78 -151.51)"/><path class="cls-3" d="M420.94,151.51a74.79,74.79,0,0,0-74.79,74.8c0,2.13.11,4.23.28,6.32l3.2.22c1.56,20.75,18.45,46.59,40.54,57.78-.38,1-.8,2.11-1.24,3.29a74.79,74.79,0,0,0,94.67-26.79c-1.18-.82-2.29-1.7-3.27-2.37,4.62-7.48,8.31-18.35,10.43-28.23,1.41-.05,2.87-.2,4.3-.28a70.82,70.82,0,0,0,.68-9.94A74.8,74.8,0,0,0,420.94,151.51Zm0,139.91a65.11,65.11,0,1,1,65.11-65.11A65.1,65.1,0,0,1,420.94,291.42Z" transform="translate(-28.78 -151.51)"/></g><path class="cls-3" d="M443.61,370.22V442.5h66.25V435H452.64V370.22Zm136.79,0-33.12,35.37-33.13-35.37h-12l40.66,42.16V442.5h9V412.38l40.66-42.16Zm22.74,0v7.53h36.14V442.5h9V377.75h36.14v-7.53Zm94.44,72.28h9V370.22h-9Zm97-72.28L764.1,398.54l-31.56-28.32H719.75l38.06,34.15L716.73,442.5h12.8l34.79-32.29,36,32.29h12.8l-42.49-38.13,36.8-34.15Z" transform="translate(-28.78 -151.51)"/><g class="cls-4"><path class="cls-5" d="M359.37,418.4l24-42.21,23.95,42.21ZM421,442.5h9.48l-41.1-72.28h-13L335.2,442.5h10.46l9.43-16.57h56.54Zm-158.95,0h9.14l42.91-65.27V442.5h9V370.22h-14.9l-42.14,63.25L224,370.22H209.47V442.5h9V376.25Zm-64.65,0V435H134.18v-25.6h60.23v-7.53H134.18V377.75h63.24v-7.53H125.15V442.5ZM64.92,401.84c-4,0-7.48-.08-10.38-.26a53.07,53.07,0,0,1-7.36-.87,18.83,18.83,0,0,1-4.85-1.55,7.84,7.84,0,0,1-2.84-2.33,7.48,7.48,0,0,1-1.34-3.22,23.9,23.9,0,0,1-.33-4.19,13.8,13.8,0,0,1,1.31-6.35A9.26,9.26,0,0,1,43.84,379a31.74,31.74,0,0,1,9.22-2.14,143.3,143.3,0,0,1,14.87-.63h9q6.78,0,11.39.3a23.2,23.2,0,0,1,7.44,1.51,7.69,7.69,0,0,1,4,3.6,14.73,14.73,0,0,1,1.23,6.63h9a31.63,31.63,0,0,0-.56-6.17,14.33,14.33,0,0,0-2-5,13.09,13.09,0,0,0-3.86-3.76,23,23,0,0,0-6.1-2.64,49.49,49.49,0,0,0-8.75-1.55q-5.08-.49-11.86-.49h-9q-8.28,0-14.4.61a63,63,0,0,0-10.47,1.81,26,26,0,0,0-7.13,3,15.36,15.36,0,0,0-4.37,4.07,13.53,13.53,0,0,0-2.19,5.1,30.19,30.19,0,0,0-.59,6.12,42.74,42.74,0,0,0,.38,5.86,13.74,13.74,0,0,0,1.62,4.91,12.18,12.18,0,0,0,3.65,3.93,20.66,20.66,0,0,0,6.4,2.87,57,57,0,0,0,9.9,1.77,140,140,0,0,0,14.19.61H77.34a92.64,92.64,0,0,1,12.19.64,19.76,19.76,0,0,1,7.22,2.16,7.48,7.48,0,0,1,3.44,4.07,20.15,20.15,0,0,1,.87,6.4,15.17,15.17,0,0,1-1.27,6.51,9.68,9.68,0,0,1-4.38,4.34,25.8,25.8,0,0,1-8.33,2.41,93.29,93.29,0,0,1-13.13.76h-12q-6.78,0-11.37-.31a22.6,22.6,0,0,1-7.41-1.53,7.71,7.71,0,0,1-4-3.66,15.11,15.11,0,0,1-1.23-6.73h-9a31.74,31.74,0,0,0,.56,6.18,14.18,14.18,0,0,0,2,5,13.66,13.66,0,0,0,3.84,3.81,21.27,21.27,0,0,0,6.07,2.69,50.46,50.46,0,0,0,8.75,1.57,117.18,117.18,0,0,0,11.86.52H74a111.64,111.64,0,0,0,13.15-.68,50.23,50.23,0,0,0,9.63-2,23.73,23.73,0,0,0,6.58-3.19,15,15,0,0,0,6.19-9.53,31,31,0,0,0,.59-6.16,51,51,0,0,0-.35-6.15,15.38,15.38,0,0,0-1.53-5.12,13.07,13.07,0,0,0-3.34-4.09,17.75,17.75,0,0,0-5.81-3,45.38,45.38,0,0,0-9-1.82,112.84,112.84,0,0,0-12.75-.62Z" transform="translate(-28.78 -151.51)"/></g></svg>