<svg width="865" height="163" viewBox="0 0 865 163" fill="none" xmlns="http://www.w3.org/2000/svg">
<path d="M90.1988 149.879C87.7564 152.612 84.4682 154.447 80.8595 155.093C77.5797 155.606 74.39 154.864 72.0698 152.734L7.59128 93.4774C2.95542 89.2132 3.53659 81.0227 8.92031 75.1826C11.3621 72.4492 14.6505 70.6133 18.2596 69.9684C21.5394 69.4551 24.7291 70.1981 27.0493 72.3324L66.8483 108.908C69.0513 110.93 72.9078 110.322 75.4577 107.557C78.0077 104.793 78.2915 100.889 76.0885 98.8672L36.1858 62.1877C31.5455 57.9235 32.1311 49.733 37.5104 43.8974C39.9515 41.161 43.2425 39.3245 46.8542 38.6832C50.134 38.1654 53.3236 38.9129 55.6438 41.0427L62.1719 47.0269C64.3749 49.0531 68.2314 48.4452 70.7813 45.676C73.3313 42.9068 73.6151 39.0119 71.4121 36.9857L64.875 30.997C60.2346 26.7329 60.8203 18.5424 66.2266 12.7068C68.6649 9.97151 71.9527 8.13506 75.5614 7.49261C78.8457 6.97479 82.0353 7.72225 84.351 9.85205L148.83 69.1084C153.47 73.3725 152.884 81.5631 147.505 87.4031C145.063 90.136 141.775 91.9705 138.166 92.6128C134.881 93.1306 131.692 92.3832 129.376 90.2534L88.4192 52.6148C86.2162 50.593 82.3597 51.1964 79.8098 53.9656C77.2598 56.7348 76.976 60.6297 79.179 62.6559L120.131 100.295C124.772 104.559 124.186 112.749 118.807 118.589C116.365 121.336 113.069 123.18 109.45 123.826C106.17 124.344 102.98 123.596 100.66 121.467L93.1001 114.519C90.8971 112.493 87.0406 113.1 84.4907 115.87C81.9407 118.639 81.6569 122.534 83.8599 124.56L91.5188 131.602C96.1637 135.848 95.569 144.039 90.1988 149.879Z" fill="#101828"/>
<path d="M253.486 99.2589C253.323 114.663 240.596 127.23 225.017 127.235L181.456 127.257C180.948 127.266 180.442 127.173 179.971 126.983C179.499 126.793 179.07 126.509 178.711 126.15C178.351 125.791 178.067 125.363 177.876 124.892C177.685 124.42 177.591 123.915 177.6 123.407V117.716C177.603 116.471 177.853 115.239 178.335 114.092C178.818 112.944 179.524 111.904 180.412 111.031C181.3 110.158 182.352 109.47 183.508 109.007C184.664 108.543 185.901 108.314 187.146 108.332H225.013C226.314 108.346 227.603 108.091 228.801 107.584C229.999 107.077 231.08 106.329 231.975 105.385C232.871 104.442 233.562 103.325 234.006 102.102C234.45 100.88 234.637 99.5795 234.555 98.2818C234.388 93.2567 229.86 89.2402 224.832 89.2402H206.064C198.594 89.2496 191.42 86.3241 186.09 81.0948C180.759 75.8655 177.698 68.7514 177.568 61.2871C177.226 45.3788 190.633 32.3118 206.541 32.3028H241.889C242.908 32.3133 243.882 32.7222 244.603 33.4418C245.324 34.1614 245.734 35.1345 245.746 36.1527V41.8261C245.719 44.3492 244.705 46.7614 242.92 48.5464C241.136 50.3313 238.723 51.3472 236.199 51.3765H206.041C204.76 51.3861 203.493 51.6516 202.315 52.1575C201.138 52.6634 200.073 53.3993 199.184 54.3222C198.295 55.2451 197.6 56.3362 197.139 57.5315C196.677 58.7268 196.46 60.0021 196.499 61.2826C196.833 66.4743 201.194 70.3241 206.388 70.3196H207.893H223.138H224.49C240.578 70.2926 253.81 83.3506 253.486 99.2589Z" fill="#101828"/>
<path d="M293.888 150.644L303.092 125.357L270.713 37.4585C270.514 36.8706 270.457 36.2439 270.547 35.6297C270.637 35.0155 270.871 34.4312 271.23 33.9248C271.589 33.4183 272.063 33.0041 272.613 32.7159C273.163 32.4277 273.773 32.2738 274.394 32.2668H282.436C284.389 32.281 286.294 32.8773 287.906 33.9794C289.519 35.0816 290.765 36.6394 291.487 38.4536L313.297 97.8901L335.048 38.4536C335.711 36.6316 336.919 35.0574 338.507 33.9443C340.095 32.8312 341.988 32.233 343.928 32.2308H352.136C354.839 32.2308 356.493 34.9324 355.655 37.4225L314.495 149.465C313.832 151.284 312.624 152.855 311.036 153.963C309.448 155.072 307.557 155.665 305.62 155.66H297.411C294.731 155.665 292.884 152.99 293.888 150.644Z" fill="#101828"/>
<path d="M436.965 127.131C436.456 127.14 435.951 127.046 435.48 126.855C435.008 126.665 434.58 126.382 434.22 126.023C433.861 125.664 433.577 125.236 433.386 124.765C433.195 124.294 433.1 123.789 433.108 123.281L433.077 60.6522C433.073 59.4076 432.821 58.1762 432.338 57.0294C431.854 55.8826 431.147 54.8432 430.258 53.9715C429.369 53.0999 428.316 52.4133 427.159 51.9516C426.003 51.4899 424.766 51.2623 423.521 51.282H395.039L395.075 123.286C395.088 123.781 395.003 124.274 394.825 124.737C394.646 125.199 394.378 125.622 394.036 125.98C393.693 126.338 393.283 126.625 392.829 126.824C392.375 127.023 391.886 127.131 391.39 127.14H380.001C379.492 127.149 378.987 127.056 378.515 126.866C378.044 126.676 377.615 126.392 377.255 126.033C376.895 125.674 376.611 125.246 376.421 124.775C376.23 124.303 376.136 123.798 376.144 123.29L376.099 36.0491C376.091 35.541 376.185 35.0364 376.375 34.5652C376.566 34.094 376.849 33.6659 377.208 33.3063C377.568 32.9468 377.996 32.6631 378.467 32.4721C378.938 32.2812 379.443 32.1869 379.951 32.1948L423.512 32.1723C427.253 32.1675 430.959 32.9001 434.416 34.3279C437.874 35.7558 441.016 37.8511 443.662 40.4937C446.309 43.1364 448.408 46.2747 449.84 49.7291C451.272 53.1835 452.009 56.8861 452.008 60.6252L452.039 123.254C452.052 123.749 451.967 124.242 451.789 124.704C451.611 125.166 451.343 125.589 451.001 125.947C450.659 126.305 450.249 126.592 449.796 126.791C449.342 126.991 448.854 127.099 448.358 127.109L436.965 127.131Z" fill="#101828"/>
<path d="M505.66 127.095C501.919 127.1 498.213 126.368 494.755 124.94C491.297 123.513 488.155 121.418 485.508 118.775C482.862 116.132 480.762 112.993 479.331 109.539C477.899 106.084 477.163 102.381 477.165 98.642L477.142 60.6342C477.137 56.8949 477.87 53.1913 479.299 49.7353C480.728 46.2794 482.824 43.1388 485.468 40.4932C488.112 37.8477 491.252 35.749 494.708 34.3174C498.164 32.8857 501.869 32.1491 505.611 32.1497H524.532C531.34 32.178 537.919 34.6131 543.103 39.0237C548.287 43.4343 551.742 49.536 552.857 56.2485C552.933 56.7956 552.889 57.3526 552.73 57.8815C552.571 58.4103 552.299 58.8984 551.933 59.3124C551.567 59.7264 551.116 60.0564 550.61 60.2799C550.105 60.5034 549.557 60.615 549.005 60.6072H537.291C536.492 60.5948 535.718 60.3253 535.084 59.8387C534.45 59.352 533.99 58.6741 533.773 57.9055C533.151 55.9536 531.921 54.2514 530.263 53.0476C528.604 51.8438 526.604 51.2015 524.555 51.2144H505.633C503.127 51.2047 500.718 52.1848 498.931 53.9413C497.144 55.6979 496.123 58.0888 496.091 60.5937V98.606C496.119 101.129 497.135 103.541 498.921 105.325C500.708 107.108 503.122 108.122 505.647 108.147H524.568C526.632 108.129 528.636 107.457 530.294 106.229C531.951 105.001 533.177 103.28 533.795 101.312C534.013 100.545 534.473 99.8677 535.106 99.3812C535.738 98.8947 536.511 98.6245 537.309 98.6105H549.023C549.575 98.6021 550.123 98.7131 550.629 98.9361C551.134 99.159 551.586 99.4885 551.952 99.9021C552.318 100.316 552.591 100.803 552.751 101.332C552.911 101.861 552.955 102.418 552.879 102.965C551.771 109.678 548.321 115.783 543.141 120.199C537.962 124.615 531.385 127.056 524.577 127.09L505.66 127.095Z" fill="#101828"/>
<path d="M613.884 108.12C616.391 108.108 618.801 109.086 620.591 110.841C622.38 112.595 623.404 114.985 623.44 117.491V123.187C623.448 123.695 623.354 124.199 623.164 124.671C622.973 125.142 622.69 125.57 622.331 125.929C621.971 126.289 621.543 126.573 621.072 126.764C620.601 126.955 620.096 127.049 619.588 127.041H602.5C598.758 127.045 595.053 126.312 591.595 124.884C588.137 123.455 584.996 121.36 582.349 118.717C579.702 116.073 577.603 112.935 576.171 109.48C574.739 106.026 574.003 102.323 574.004 98.5835L573.964 17.5608C573.955 17.0526 574.049 16.548 574.239 16.0768C574.43 15.6056 574.713 15.1775 575.073 14.818C575.432 14.4584 575.86 14.1747 576.331 13.9837C576.802 13.7928 577.307 13.6985 577.816 13.7064H589.209C589.704 13.7169 590.192 13.8251 590.645 14.0247C591.098 14.2244 591.507 14.5115 591.849 14.8697C592.191 15.2279 592.458 15.65 592.636 16.1119C592.814 16.5737 592.899 17.0661 592.885 17.5608V32.1317H609.974C611.228 32.1305 612.47 32.3763 613.629 32.855C614.788 33.3337 615.841 34.0359 616.728 34.9215C617.616 35.8072 618.32 36.8589 618.8 38.0165C619.281 39.1742 619.529 40.4152 619.529 41.6685V47.3645C619.519 48.382 619.11 49.3549 618.391 50.0752C617.672 50.7955 616.7 51.206 615.682 51.2189H592.894V98.606C592.923 101.129 593.939 103.541 595.725 105.325C597.511 107.108 599.925 108.122 602.45 108.147L613.884 108.12Z" fill="#101828"/>
<path d="M662.428 16.8358V22.5138C662.442 23.009 662.357 23.502 662.179 23.9644C662.001 24.4268 661.733 24.8493 661.391 25.2077C661.049 25.5661 660.639 25.8531 660.185 26.0523C659.731 26.2515 659.243 26.3588 658.747 26.3682H647.353C646.845 26.3773 646.34 26.284 645.868 26.0938C645.396 25.9036 644.968 25.6205 644.608 25.2612C644.248 24.9019 643.964 24.4739 643.773 24.0027C643.582 23.5314 643.488 23.0266 643.497 22.5183V11.1488C643.506 10.6535 643.613 10.1649 643.811 9.71105C644.01 9.25724 644.297 8.84728 644.655 8.50482C645.013 8.16237 645.435 7.89421 645.898 7.71584C646.36 7.53746 646.853 7.4524 647.349 7.46556H653.043C654.276 7.46378 655.496 7.70487 656.635 8.17503C657.773 8.64519 658.808 9.33519 659.68 10.2055C660.552 11.0759 661.243 12.1095 661.714 13.2472C662.186 14.3849 662.428 15.6044 662.428 16.8358ZM662.428 35.923L662.473 123.169C662.485 123.664 662.4 124.156 662.221 124.618C662.042 125.08 661.774 125.502 661.432 125.86C661.089 126.218 660.679 126.504 660.225 126.703C659.772 126.902 659.283 127.009 658.788 127.018H647.394C646.886 127.026 646.381 126.932 645.91 126.741C645.439 126.551 645.011 126.268 644.651 125.909C644.291 125.55 644.008 125.122 643.816 124.651C643.625 124.181 643.53 123.677 643.537 123.169L643.497 35.923C643.488 35.4149 643.581 34.9102 643.771 34.439C643.962 33.9677 644.245 33.5397 644.605 33.1804C644.964 32.821 645.393 32.5378 645.864 32.3476C646.335 32.1573 646.84 32.064 647.349 32.0732H658.738C659.235 32.0807 659.725 32.1866 660.18 32.3847C660.635 32.5827 661.047 32.869 661.391 33.227C661.735 33.585 662.004 34.0076 662.184 34.4704C662.363 34.9331 662.449 35.4268 662.437 35.923H662.428Z" fill="#101828"/>
<path d="M767.823 37.2108L737.187 120.787C736.524 122.606 735.316 124.177 733.728 125.286C732.14 126.396 730.249 126.989 728.312 126.987H722.635C720.682 126.972 718.777 126.375 717.164 125.272C715.552 124.169 714.305 122.611 713.584 120.796L682.877 37.2514C682.68 36.6631 682.624 36.0366 682.715 35.4229C682.806 34.8092 683.04 34.2255 683.4 33.7195C683.759 33.2135 684.232 32.7994 684.782 32.511C685.332 32.2226 685.942 32.0679 686.562 32.0597H694.604C696.557 32.0761 698.462 32.6738 700.074 33.7765C701.686 34.8792 702.933 36.437 703.655 38.251L725.465 97.6875L747.216 38.251C747.878 36.4306 749.085 34.8585 750.673 33.749C752.261 32.6394 754.153 32.0464 756.091 32.0507H764.3C764.916 32.0487 765.524 32.1978 766.07 32.4848C766.615 32.7718 767.083 33.1881 767.43 33.6971C767.778 34.2062 767.995 34.7927 768.064 35.4052C768.132 36.0177 768.049 36.6377 767.823 37.2108Z" fill="#101828"/>
<path d="M813.141 126.942C809.399 126.947 805.694 126.215 802.236 124.787C798.778 123.36 795.636 121.265 792.989 118.622C790.342 115.979 788.243 112.84 786.811 109.386C785.379 105.931 784.643 102.228 784.645 98.4889V60.4766C784.64 56.7373 785.372 53.0337 786.801 49.5777C788.229 46.1217 790.326 42.9812 792.97 40.3359C795.614 37.6906 798.754 35.5924 802.211 34.1614C805.667 32.7305 809.372 31.9948 813.113 31.9966H832.035C835.777 31.9913 839.482 32.7234 842.94 34.1511C846.398 35.5788 849.54 37.674 852.187 40.3168C854.834 42.9596 856.933 46.0981 858.365 49.5527C859.797 53.0074 860.533 56.7103 860.531 60.4496V79.5368C860.534 80.7688 860.293 81.9892 859.823 83.1282C859.354 84.2671 858.663 85.3022 857.792 86.1739C856.921 87.0457 855.887 87.7371 854.748 88.2084C853.609 88.6797 852.388 88.9217 851.156 88.9205H803.571V98.4664C803.601 100.989 804.617 103.401 806.403 105.184C808.189 106.967 810.603 107.981 813.127 108.008H832.049C834.114 107.984 836.119 107.306 837.775 106.071C839.43 104.836 840.651 103.109 841.262 101.137C841.481 100.368 841.941 99.6908 842.574 99.2043C843.208 98.7177 843.982 98.4479 844.781 98.4349H856.494C857.046 98.4266 857.594 98.5375 858.099 98.7602C858.604 98.9829 859.055 99.3119 859.421 99.725C859.788 100.138 860.06 100.625 860.221 101.153C860.381 101.681 860.425 102.238 860.351 102.785C859.243 109.499 855.794 115.605 850.614 120.022C845.434 124.438 838.858 126.88 832.049 126.915L813.141 126.942ZM841.595 69.9954V60.4496C841.591 59.2048 841.34 57.9731 840.856 56.8261C840.373 55.679 839.666 54.6393 838.777 53.7673C837.888 52.8953 836.835 52.2083 835.678 51.7461C834.522 51.2839 833.285 51.0557 832.04 51.0748H813.118C810.611 51.0651 808.202 52.045 806.414 53.8015C804.626 55.5579 803.605 57.9488 803.571 60.4541V69.9999L841.595 69.9954Z" fill="#101828"/>
</svg>
