<svg id="Ebene_1" data-name="Ebene 1" xmlns="http://www.w3.org/2000/svg" viewBox="0 0 800 521.52"><defs><style>.cls-1{fill:#0e0e10;}</style></defs><path class="cls-1" d="M10.26,498.34v4.11a8.88,8.88,0,0,0,8.81,8.82H26c5.23,0,8.92-3.29,8.92-7.8C34.87,489.32,1,486.24,1,466.76c0-10.05,7.89-17,19.07-17h4.82A19.13,19.13,0,0,1,44.1,468.81v3.08H33.84v-3.08A8.84,8.84,0,0,0,24.92,460H20.1c-5.54,0-8.82,2.56-8.82,6.77,0,10.87,33.84,15.07,33.84,36.71,0,10.25-8.3,18-19.17,18H19.07A19,19,0,0,1,0,502.45v-4.11Z"/><path class="cls-1" d="M139.48,449.74v23.38L122.05,496v25.53H111.79V496L94.36,474.35V449.74h10.25v20.91l12.11,15.08h.2l12.31-16.1V449.74Z"/><path class="cls-1" d="M233.84,449.74v71.78H219L199,467v54.56H188.72V449.74h14.87l20,54.55V449.74Z"/><path class="cls-1" d="M328.2,460H310.77v61.53H300.51V460H283.08V449.74H328.2Z"/><path class="cls-1" d="M405.13,460v51.28h17.43v10.25H377.44V511.27h17.43V460H377.44V449.74h45.12V460Z"/><path class="cls-1" d="M516.92,449.74v71.78H502.05l-20-54.56v54.56H471.8V449.74h14.87l20,54.55V449.74Z"/><path class="cls-1" d="M576.41,460v18.77h30.77V489H576.41v22.26h34.87v10.25H566.16V449.74h45.12V460Z"/><path class="cls-1" d="M705.64,511.27v10.25H660.52V449.74h10.25v61.53Z"/><path class="cls-1" d="M765.13,498.34v4.11a8.89,8.89,0,0,0,8.82,8.82h6.87c5.23,0,8.93-3.29,8.93-7.8,0-14.15-33.85-17.23-33.85-36.71,0-10.05,7.9-17,19.08-17h4.82A19.12,19.12,0,0,1,799,468.81v3.08H788.72v-3.08A8.84,8.84,0,0,0,779.8,460H775c-5.54,0-8.82,2.56-8.82,6.77,0,10.87,33.84,15.07,33.84,36.71,0,10.25-8.31,18-19.18,18H774a19,19,0,0,1-19.07-19.07v-4.11Z"/><path class="cls-1" d="M549.14,50.09A7.7,7.7,0,0,0,542,45.32H456a18.64,18.64,0,0,0-13.28,5.5L400,93.49,308.78,2.27a7.73,7.73,0,0,0-13.2,5.47V93.79a18.66,18.66,0,0,0,5.5,13.28l59.14,59.14V327.09a7.74,7.74,0,0,0,13.21,5.47l64.08-64.08a7.68,7.68,0,0,0,2.26-5.47v-96.8L547.47,58.52A7.71,7.71,0,0,0,549.14,50.09ZM304.42,93.79V10.41l89.33,89.33-11.52,11.52c-.67.66-1.31,1.34-2,2l-.35.37c-.61.67-1.2,1.34-1.79,2l-.32.39q-.9,1.05-1.74,2.13l0,0c-.57.72-1.12,1.46-1.66,2.21l-.3.42c-.52.72-1,1.45-1.51,2.19l-.27.42q-.74,1.13-1.44,2.28l0,.06c-.47.78-.92,1.57-1.36,2.36l-.25.46c-.42.77-.82,1.55-1.22,2.34l-.21.44c-.39.8-.77,1.6-1.13,2.4l0,.1c-.37.82-.71,1.66-1.05,2.49l-.2.5c-.32.81-.62,1.63-.92,2.46-.05.16-.1.31-.16.46-.28.84-.56,1.67-.81,2.51a.56.56,0,0,0,0,.12c-.26.87-.51,1.74-.74,2.61,0,.18-.09.35-.13.52-.22.85-.43,1.71-.62,2.57,0,.16-.06.32-.1.47-.18.87-.35,1.73-.5,2.6l0,.14c-.15.9-.29,1.8-.41,2.71,0,.1,0,.2-.05.3l-53.55-53.55A9.88,9.88,0,0,1,304.42,93.79ZM430.93,262.55l-61.87,61.87v-87.5l.25-.25,61.62-61.62Zm8.84-108.84h0l-70.71,70.71v-60c0-.25,0-.5,0-.75s0-.6,0-.91l0-.76,0-.89c0-.36.05-.73.07-1.09l0-.55.12-1.32c0-.1,0-.21,0-.31l.15-1.36,0-.27a65.72,65.72,0,0,1,18.92-38.66l6.43-6.43,11.34-11.34h0l42.67-42.67a9.86,9.86,0,0,1,7-2.91h83.38Z"/></svg>