<svg xmlns="http://www.w3.org/2000/svg" xmlns:xlink="http://www.w3.org/1999/xlink" width="1008px" height="192px" viewBox="0 0 1008 192" transform="rotate(0) scale(1, 1)">
  <defs>
    <clipPath id="clip-path">
      <rect id="Rechteck_1474" width="1008" height="192" transform="translate(0 -0.426)" fill="#000000"/>
    </clipPath>
  </defs>
  <g id="Gruppe_552" transform="translate(-4.354 -3.912)">
    <g id="Zeichenfläche_3" transform="translate(4.354 4.338)" clip-path="url(#clip-path)">
      <path id="Pfad_3" d="M126.142-94.12,83.683,51.786H45.462L3-94.12H36.462L64.572,11.707,92.686-94.12Zm76.673,22.268H170.694V-99.395h32.121Zm-.563,96.683h39.09V51.786H128.848V24.83h42.415V-32.089H136.231V-59.044h66.021ZM330.2-23.891A22.531,22.531,0,0,0,318.6-33.853a49.525,49.525,0,0,0-19.151-3.34,46.751,46.751,0,0,0-10.423,1.045,17.248,17.248,0,0,0-7.251,3.291,7.036,7.036,0,0,0-2.706,5.647,6.883,6.883,0,0,0,3.761,6.273,26.808,26.808,0,0,0,9.473,3.042q5.711.864,16.158,1.752a220.64,220.64,0,0,1,26.84,3.606,40.381,40.381,0,0,1,18.217,8.843q7.684,6.6,7.684,19.157a31.439,31.439,0,0,1-6.869,20.229A42.991,42.991,0,0,1,335.3,48.855a78.635,78.635,0,0,1-27.754,4.563,92.934,92.934,0,0,1-24.868-3.288,65.476,65.476,0,0,1-21.142-9.978,45.27,45.27,0,0,1-14.186-16.511L275.612,14.7a27.627,27.627,0,0,0,13.266,11.052,49.387,49.387,0,0,0,19.283,3.65,48.3,48.3,0,0,0,10.79-1.153,21.431,21.431,0,0,0,8.192-3.526,7.106,7.106,0,0,0,3.15-5.862,6.3,6.3,0,0,0-3.582-5.705,26.725,26.725,0,0,0-8.974-2.907q-5.387-.87-15.5-1.86A223.655,223.655,0,0,1,275.011,4.5a42.131,42.131,0,0,1-18.792-9.243q-7.928-6.845-7.928-19.735a30.126,30.126,0,0,1,6.924-20.1,41.989,41.989,0,0,1,18.929-12.354,83.031,83.031,0,0,1,27.17-4.142,90.392,90.392,0,0,1,24.618,3.194A58.027,58.027,0,0,1,345.613-48.3a42.425,42.425,0,0,1,12.755,15.548Zm112.155-47.96H410.232V-99.395h32.121ZM441.79,24.83h39.1V51.786h-112.5V24.83H410.8V-32.089H375.767V-59.044h66.012ZM543.652-61.041a62.818,62.818,0,0,1,30.385,7.047A48.84,48.84,0,0,1,594.1-33.961a62.184,62.184,0,0,1,7.054,30.148A62.18,62.18,0,0,1,594.1,26.333a48.84,48.84,0,0,1-20.065,20.033,62.817,62.817,0,0,1-30.385,7.047,62.817,62.817,0,0,1-30.385-7.047A48.839,48.839,0,0,1,493.2,26.333a62.182,62.182,0,0,1-7.054-30.146A62.185,62.185,0,0,1,493.2-33.961a48.839,48.839,0,0,1,20.061-20.033,62.818,62.818,0,0,1,30.385-7.047Zm0,25.564a26.025,26.025,0,0,0-14.6,3.914,23.8,23.8,0,0,0-8.933,11.01,43.049,43.049,0,0,0-2.977,16.731,43.142,43.142,0,0,0,2.977,16.74,23.8,23.8,0,0,0,8.933,11.023,29.2,29.2,0,0,0,29.2,0,23.8,23.8,0,0,0,8.933-11.01A43.043,43.043,0,0,0,570.163-3.8a43.141,43.141,0,0,0-2.977-16.74,23.792,23.792,0,0,0-8.933-11.023,26.024,26.024,0,0,0-14.606-3.912ZM644.028-59.044v17.136a32.288,32.288,0,0,1,13.494-14.466,41.828,41.828,0,0,1,20.31-4.7,41.66,41.66,0,0,1,20.088,4.484,29.683,29.683,0,0,1,12.585,12.973,44.938,44.938,0,0,1,4.309,20.534v74.87H683.826V-13.9q0-9.458-4.379-14.816T666.12-34.075a22.9,22.9,0,0,0-11.52,2.844,19.847,19.847,0,0,0-7.788,8.016,24.87,24.87,0,0,0-2.787,11.976V51.786H613.039V-59.044ZM763.088-94.12h44.368L846.838,51.786H813.778L806.23,22H764.306l-7.547,29.781H723.7ZM799.4-7.879,785.272-64.854,771.14-7.882ZM962.363-64.234H923.084V21.9h39.279V51.786H851.916V21.9h39.279V-64.234H851.916V-94.12H962.363Z" transform="translate(19.156 117.327)" fill="#000000"/>
    </g>
  </g>
</svg>